<svg width="396" height="106" viewBox="0 0 396 106" fill="none" xmlns="http://www.w3.org/2000/svg">
<path d="M114.564 59.9638C113.143 57.0758 111.24 54.4511 108.938 52.2025C107.756 51.1263 106.426 49.9975 104.956 48.8338L106.628 47.6525C109.174 46.0775 111.169 42.9625 112.753 38.115C113.858 34.6136 114.158 30.9072 113.628 27.2738C113.143 23.8509 112.018 20.55 110.311 17.5438C108.752 14.7575 106.623 12.3307 104.064 10.4213C101.627 8.65605 98.908 7.3186 96.0225 6.46625C93.0294 5.5779 89.9222 5.13275 86.8 5.145H86.3888V0H74.725V5.145H52.2638L30.8438 44.0213H15.6975V57.7938H23.24L0.875 98.3413L0 99.995H11.3925L34.6675 57.7763H54.5125V100.021H74.725V105.158H86.3538V99.995C92.0763 99.8725 96.6438 99.2863 99.9425 98.245C103.574 97.1375 106.878 95.1578 109.568 92.4788C111.823 90.2791 113.682 87.7068 115.063 84.875C116.77 80.9318 117.574 76.6566 117.416 72.3625C117.464 68.0616 116.486 63.8113 114.564 59.9638ZM105.018 77.2713C104.528 81.4363 103.014 84.3587 100.52 85.96C98.0303 87.6267 95.2148 88.7452 92.26 89.2412C88.8942 89.6996 85.4973 89.8898 82.1013 89.81H65.7125V57.2163H85.9688C88.6558 57.2361 91.3399 57.3967 94.01 57.6975C96.0157 58.0165 97.887 58.9066 99.4 60.2612C101.257 61.8101 102.751 63.7489 103.775 65.94C105.131 68.9938 105.543 72.7913 105.018 77.2713ZM65.7125 44.0213V15.5575H84.8488C87.1114 15.5712 89.3665 15.8204 91.5775 16.3013C93.6179 16.7071 95.5702 17.4715 97.3438 18.5588C99.0645 19.784 100.412 21.4618 101.238 23.4063C102.371 26.1068 102.761 29.0616 102.366 31.9638C102.203 34.6213 101.236 37.1664 99.5925 39.2613C98.0461 41.0272 96.0079 42.2915 93.7388 42.8925C90.7474 43.6827 87.6625 44.0624 84.5688 44.0213H65.7125ZM42.2625 44.0213L54.5125 21.7963V44.0213H42.2625Z" fill="black"/>
<path d="M131.24 18H134.44V46H131.24V18Z" fill="black"/>
<path d="M158.32 33.8C158.32 31.88 157.8 30.3733 156.76 29.28C155.746 28.1867 154.32 27.64 152.48 27.64C150.32 27.6933 148.626 28.4667 147.4 29.96C146.173 31.4267 145.56 33.3333 145.56 35.68H144.52C144.52 33.2267 144.88 31.2133 145.6 29.64C146.346 28.04 147.4 26.8533 148.76 26.08C150.12 25.28 151.733 24.88 153.6 24.88C155.253 24.88 156.653 25.2133 157.8 25.88C158.973 26.5467 159.866 27.4933 160.48 28.72C161.12 29.92 161.44 31.3733 161.44 33.08V46H158.32V33.8ZM174.2 33.8C174.2 31.88 173.68 30.3733 172.64 29.28C171.6 28.1867 170.173 27.64 168.36 27.64C166.2 27.6933 164.506 28.4667 163.28 29.96C162.053 31.4267 161.44 33.3333 161.44 35.68H160.36C160.36 33.2267 160.72 31.2133 161.44 29.64C162.186 28.04 163.24 26.8533 164.6 26.08C165.96 25.28 167.586 24.88 169.48 24.88C171.106 24.88 172.506 25.2133 173.68 25.88C174.853 26.5467 175.746 27.4933 176.36 28.72C177 29.92 177.32 31.3733 177.32 33.08V46H174.2V33.8ZM142.48 24.96H145.56V46H142.48V24.96Z" fill="black"/>
<path d="M195.678 24.88C197.678 24.88 199.438 25.3333 200.958 26.24C202.478 27.1467 203.664 28.4 204.518 30C205.371 31.6 205.798 33.44 205.798 35.52C205.798 37.5733 205.371 39.4 204.518 41C203.664 42.6 202.478 43.8533 200.958 44.76C199.464 45.64 197.717 46.08 195.717 46.08C193.797 46.08 192.118 45.6533 190.678 44.8C189.264 43.92 188.157 42.6933 187.357 41.12C186.584 39.52 186.197 37.6533 186.197 35.52C186.197 33.36 186.584 31.48 187.357 29.88C188.157 28.28 189.264 27.0533 190.678 26.2C192.118 25.32 193.784 24.88 195.678 24.88ZM195.118 27.4C193.651 27.4 192.344 27.76 191.197 28.48C190.051 29.1733 189.158 30.12 188.518 31.32C187.878 32.52 187.557 33.9067 187.557 35.48C187.557 37.0267 187.878 38.4133 188.518 39.64C189.158 40.84 190.051 41.7867 191.197 42.48C192.344 43.1733 193.651 43.52 195.118 43.52C196.584 43.52 197.877 43.1733 198.997 42.48C200.144 41.7867 201.038 40.84 201.678 39.64C202.318 38.4133 202.637 37.0267 202.637 35.48C202.637 33.9067 202.318 32.52 201.678 31.32C201.038 30.12 200.144 29.1733 198.997 28.48C197.877 27.76 196.584 27.4 195.118 27.4ZM184.438 24.96H187.557V53.76H184.438V24.96Z" fill="black"/>
<path d="M221.949 27.72C220.375 27.6933 219.015 28.0267 217.869 28.72C216.749 29.3867 215.882 30.3333 215.269 31.56C214.655 32.76 214.349 34.1733 214.349 35.8L213.269 35.68C213.269 33.3867 213.615 31.44 214.309 29.84C215.002 28.24 216.002 27.0133 217.309 26.16C218.615 25.3067 220.162 24.88 221.949 24.88V27.72ZM211.269 24.96H214.389V46H211.269V24.96Z" fill="black"/>
<path d="M234.712 24.88C236.792 24.88 238.632 25.3333 240.232 26.24C241.858 27.12 243.125 28.36 244.032 29.96C244.938 31.56 245.392 33.4 245.392 35.48C245.392 37.56 244.938 39.4 244.032 41C243.125 42.6 241.858 43.8533 240.232 44.76C238.632 45.64 236.792 46.08 234.712 46.08C232.632 46.08 230.778 45.64 229.152 44.76C227.552 43.8533 226.298 42.6 225.392 41C224.485 39.4 224.032 37.56 224.032 35.48C224.032 33.4 224.485 31.56 225.392 29.96C226.298 28.36 227.552 27.12 229.152 26.24C230.778 25.3333 232.632 24.88 234.712 24.88ZM234.712 27.48C233.245 27.48 231.938 27.8267 230.792 28.52C229.645 29.1867 228.752 30.12 228.112 31.32C227.472 32.52 227.152 33.9067 227.152 35.48C227.152 37.08 227.472 38.4933 228.112 39.72C228.752 40.92 229.645 41.8667 230.792 42.56C231.938 43.2267 233.245 43.56 234.712 43.56C236.205 43.56 237.512 43.2267 238.632 42.56C239.778 41.8667 240.672 40.92 241.312 39.72C241.952 38.4933 242.272 37.08 242.272 35.48C242.272 33.9067 241.952 32.52 241.312 31.32C240.672 30.12 239.778 29.1867 238.632 28.52C237.512 27.8267 236.205 27.48 234.712 27.48Z" fill="black"/>
<path d="M246.614 24.96H249.894L256.614 43.04L263.294 24.96H266.454L258.174 46H254.934L246.614 24.96Z" fill="black"/>
<path d="M284.832 34.24C284.779 32.8267 284.445 31.6133 283.832 30.6C283.245 29.56 282.432 28.76 281.392 28.2C280.379 27.64 279.179 27.36 277.792 27.36C276.325 27.36 275.032 27.6933 273.912 28.36C272.819 29.0267 271.952 29.96 271.312 31.16C270.672 32.36 270.352 33.76 270.352 35.36C270.352 37.0133 270.672 38.4667 271.312 39.72C271.979 40.9467 272.899 41.9067 274.072 42.6C275.245 43.2933 276.579 43.64 278.072 43.64C280.739 43.64 282.912 42.7333 284.592 40.92L286.312 42.64C285.299 43.7333 284.072 44.5867 282.632 45.2C281.192 45.7867 279.605 46.08 277.872 46.08C275.792 46.08 273.952 45.64 272.352 44.76C270.779 43.8533 269.552 42.6 268.672 41C267.792 39.4 267.352 37.56 267.352 35.48C267.352 33.4 267.792 31.5733 268.672 30C269.552 28.4 270.779 27.16 272.352 26.28C273.952 25.3733 275.765 24.9067 277.792 24.88C280.059 24.88 281.939 25.3733 283.432 26.36C284.925 27.32 286.019 28.68 286.712 30.44C287.432 32.1733 287.725 34.2133 287.592 36.56H269.792V34.24H284.832Z" fill="black"/>
<path d="M308.828 33.8C308.828 31.88 308.307 30.3733 307.267 29.28C306.254 28.1867 304.827 27.64 302.987 27.64C300.827 27.6933 299.134 28.4667 297.908 29.96C296.681 31.4267 296.068 33.3333 296.068 35.68H295.027C295.027 33.2267 295.388 31.2133 296.108 29.64C296.854 28.04 297.907 26.8533 299.267 26.08C300.627 25.28 302.241 24.88 304.108 24.88C305.761 24.88 307.161 25.2133 308.307 25.88C309.481 26.5467 310.374 27.4933 310.987 28.72C311.627 29.92 311.948 31.3733 311.948 33.08V46H308.828V33.8ZM324.707 33.8C324.707 31.88 324.187 30.3733 323.147 29.28C322.107 28.1867 320.681 27.64 318.867 27.64C316.707 27.6933 315.014 28.4667 313.788 29.96C312.561 31.4267 311.948 33.3333 311.948 35.68H310.867C310.867 33.2267 311.228 31.2133 311.948 29.64C312.694 28.04 313.748 26.8533 315.108 26.08C316.468 25.28 318.094 24.88 319.987 24.88C321.614 24.88 323.014 25.2133 324.188 25.88C325.361 26.5467 326.254 27.4933 326.867 28.72C327.507 29.92 327.828 31.3733 327.828 33.08V46H324.707V33.8ZM292.987 24.96H296.068V46H292.987V24.96Z" fill="black"/>
<path d="M350.105 34.24C350.052 32.8267 349.719 31.6133 349.105 30.6C348.519 29.56 347.705 28.76 346.665 28.2C345.652 27.64 344.452 27.36 343.065 27.36C341.599 27.36 340.305 27.6933 339.185 28.36C338.092 29.0267 337.225 29.96 336.585 31.16C335.945 32.36 335.625 33.76 335.625 35.36C335.625 37.0133 335.945 38.4667 336.585 39.72C337.252 40.9467 338.172 41.9067 339.345 42.6C340.519 43.2933 341.852 43.64 343.345 43.64C346.012 43.64 348.185 42.7333 349.865 40.92L351.585 42.64C350.572 43.7333 349.345 44.5867 347.905 45.2C346.465 45.7867 344.879 46.08 343.145 46.08C341.065 46.08 339.225 45.64 337.625 44.76C336.052 43.8533 334.825 42.6 333.945 41C333.065 39.4 332.625 37.56 332.625 35.48C332.625 33.4 333.065 31.5733 333.945 30C334.825 28.4 336.052 27.16 337.625 26.28C339.225 25.3733 341.039 24.9067 343.065 24.88C345.332 24.88 347.212 25.3733 348.705 26.36C350.199 27.32 351.292 28.68 351.985 30.44C352.705 32.1733 352.999 34.2133 352.865 36.56H335.065V34.24H350.105Z" fill="black"/>
<path d="M374.421 33.8C374.421 31.88 373.888 30.3867 372.821 29.32C371.781 28.2267 370.328 27.68 368.461 27.68C366.221 27.7067 364.474 28.4667 363.221 29.96C361.968 31.4267 361.341 33.3333 361.341 35.68H360.261C360.261 33.2267 360.634 31.2133 361.381 29.64C362.128 28.04 363.194 26.8533 364.581 26.08C365.994 25.28 367.648 24.88 369.541 24.88C371.221 24.88 372.661 25.2133 373.861 25.88C375.061 26.5467 375.968 27.4933 376.581 28.72C377.221 29.92 377.541 31.3733 377.541 33.08V46H374.421V33.8ZM358.261 24.96H361.381V46H358.261V24.96Z" fill="black"/>
<path d="M388.351 39.68C388.351 41.0133 388.591 41.9733 389.071 42.56C389.551 43.12 390.244 43.4 391.151 43.4C391.684 43.3733 392.231 43.28 392.791 43.12C393.351 42.9333 393.924 42.6533 394.511 42.28L395.391 44.56C394.671 45.04 393.898 45.4267 393.071 45.72C392.271 45.9867 391.458 46.12 390.631 46.12C389.591 46.12 388.671 45.92 387.871 45.52C387.071 45.0933 386.431 44.44 385.951 43.56C385.498 42.68 385.271 41.5467 385.271 40.16V20.16H388.351V39.68ZM382.231 25.6H395.031V27.92H382.231V25.6Z" fill="black"/>
<path d="M141.76 67C145.227 67 147.907 67.8267 149.8 69.48C151.72 71.1067 152.68 73.4 152.68 76.36C152.68 79.4267 151.72 81.8133 149.8 83.52C147.907 85.2 145.227 86.04 141.76 86.04H133.04L134.44 84.64V95H131.24V67H141.76ZM141.64 83.28C144.173 83.28 146.133 82.7067 147.52 81.56C148.907 80.3867 149.6 78.68 149.6 76.44C149.6 74.2533 148.907 72.6 147.52 71.48C146.133 70.36 144.173 69.8 141.64 69.8H133.04L134.44 68.4V84.68L133.04 83.28H141.64Z" fill="black"/>
<path d="M168.238 76.72C166.664 76.6933 165.304 77.0267 164.158 77.72C163.038 78.3867 162.171 79.3333 161.558 80.56C160.944 81.76 160.638 83.1733 160.638 84.8L159.558 84.68C159.558 82.3867 159.904 80.44 160.598 78.84C161.291 77.24 162.291 76.0133 163.598 75.16C164.904 74.3067 166.451 73.88 168.238 73.88V76.72ZM157.558 73.96H160.678V95H157.558V73.96Z" fill="black"/>
<path d="M181.001 73.88C183.081 73.88 184.921 74.3333 186.521 75.24C188.147 76.12 189.414 77.36 190.321 78.96C191.227 80.56 191.681 82.4 191.681 84.48C191.681 86.56 191.227 88.4 190.321 90C189.414 91.6 188.147 92.8533 186.521 93.76C184.921 94.64 183.081 95.08 181.001 95.08C178.921 95.08 177.067 94.64 175.441 93.76C173.841 92.8533 172.587 91.6 171.681 90C170.774 88.4 170.321 86.56 170.321 84.48C170.321 82.4 170.774 80.56 171.681 78.96C172.587 77.36 173.841 76.12 175.441 75.24C177.067 74.3333 178.921 73.88 181.001 73.88ZM181.001 76.48C179.534 76.48 178.227 76.8267 177.081 77.52C175.934 78.1867 175.041 79.12 174.401 80.32C173.761 81.52 173.441 82.9067 173.441 84.48C173.441 86.08 173.761 87.4933 174.401 88.72C175.041 89.92 175.934 90.8667 177.081 91.56C178.227 92.2267 179.534 92.56 181.001 92.56C182.494 92.56 183.801 92.2267 184.921 91.56C186.067 90.8667 186.961 89.92 187.601 88.72C188.241 87.4933 188.561 86.08 188.561 84.48C188.561 82.9067 188.241 81.52 187.601 80.32C186.961 79.12 186.067 78.1867 184.921 77.52C183.801 76.8267 182.494 76.48 181.001 76.48Z" fill="black"/>
<path d="M208.607 73.88C210.607 73.88 212.367 74.3333 213.887 75.24C215.407 76.1467 216.594 77.4 217.447 79C218.301 80.6 218.727 82.44 218.727 84.52C218.727 86.5733 218.301 88.4 217.447 90C216.594 91.6 215.407 92.8533 213.887 93.76C212.394 94.64 210.647 95.08 208.647 95.08C206.727 95.08 205.047 94.6533 203.607 93.8C202.194 92.92 201.087 91.6933 200.287 90.12C199.514 88.52 199.127 86.6533 199.127 84.52C199.127 82.36 199.514 80.48 200.287 78.88C201.087 77.28 202.194 76.0533 203.607 75.2C205.047 74.32 206.714 73.88 208.607 73.88ZM208.047 76.4C206.581 76.4 205.274 76.76 204.127 77.48C202.981 78.1733 202.087 79.12 201.447 80.32C200.807 81.52 200.487 82.9067 200.487 84.48C200.487 86.0267 200.807 87.4133 201.447 88.64C202.087 89.84 202.981 90.7867 204.127 91.48C205.274 92.1733 206.581 92.52 208.047 92.52C209.514 92.52 210.807 92.1733 211.927 91.48C213.074 90.7867 213.967 89.84 214.607 88.64C215.247 87.4133 215.567 86.0267 215.567 84.48C215.567 82.9067 215.247 81.52 214.607 80.32C213.967 79.12 213.074 78.1733 211.927 77.48C210.807 76.76 209.514 76.4 208.047 76.4ZM197.367 73.96H200.487V102.76H197.367V73.96Z" fill="black"/>
<path d="M232.758 73.88C234.838 73.88 236.678 74.3333 238.278 75.24C239.905 76.12 241.172 77.36 242.078 78.96C242.985 80.56 243.438 82.4 243.438 84.48C243.438 86.56 242.985 88.4 242.078 90C241.172 91.6 239.905 92.8533 238.278 93.76C236.678 94.64 234.838 95.08 232.758 95.08C230.678 95.08 228.825 94.64 227.198 93.76C225.598 92.8533 224.345 91.6 223.438 90C222.532 88.4 222.078 86.56 222.078 84.48C222.078 82.4 222.532 80.56 223.438 78.96C224.345 77.36 225.598 76.12 227.198 75.24C228.825 74.3333 230.678 73.88 232.758 73.88ZM232.758 76.48C231.292 76.48 229.985 76.8267 228.838 77.52C227.692 78.1867 226.798 79.12 226.158 80.32C225.518 81.52 225.198 82.9067 225.198 84.48C225.198 86.08 225.518 87.4933 226.158 88.72C226.798 89.92 227.692 90.8667 228.838 91.56C229.985 92.2267 231.292 92.56 232.758 92.56C234.252 92.56 235.558 92.2267 236.678 91.56C237.825 90.8667 238.718 89.92 239.358 88.72C239.998 87.4933 240.318 86.08 240.318 84.48C240.318 82.9067 239.998 81.52 239.358 80.32C238.718 79.12 237.825 78.1867 236.678 77.52C235.558 76.8267 234.252 76.48 232.758 76.48Z" fill="black"/>
<path d="M260.045 77.96C259.218 77.4533 258.298 77.0533 257.285 76.76C256.272 76.4667 255.285 76.32 254.325 76.32C253.152 76.32 252.165 76.56 251.365 77.04C250.565 77.4933 250.165 78.24 250.165 79.28C250.165 80.08 250.445 80.72 251.005 81.2C251.592 81.6533 252.325 82.04 253.205 82.36C254.112 82.6533 255.058 82.9467 256.045 83.24C257.032 83.5333 257.978 83.9067 258.885 84.36C259.792 84.7867 260.525 85.3867 261.085 86.16C261.645 86.9333 261.925 87.9467 261.925 89.2C261.925 90.56 261.552 91.68 260.805 92.56C260.085 93.4133 259.138 94.0533 257.965 94.48C256.818 94.88 255.565 95.08 254.205 95.08C252.712 95.08 251.245 94.8267 249.805 94.32C248.365 93.8133 247.138 93.0933 246.125 92.16L247.325 90.04C248.232 90.8667 249.312 91.52 250.565 92C251.845 92.4533 253.098 92.68 254.325 92.68C255.152 92.68 255.898 92.5733 256.565 92.36C257.258 92.12 257.805 91.7733 258.205 91.32C258.632 90.84 258.845 90.24 258.845 89.52C258.872 88.64 258.605 87.96 258.045 87.48C257.512 86.9733 256.792 86.56 255.885 86.24C255.005 85.92 254.058 85.6133 253.045 85.32C252.058 85.0267 251.112 84.6667 250.205 84.24C249.325 83.7867 248.605 83.2 248.045 82.48C247.485 81.7333 247.205 80.7333 247.205 79.48C247.205 78.1733 247.552 77.1067 248.245 76.28C248.938 75.4533 249.832 74.84 250.925 74.44C252.045 74.04 253.245 73.84 254.525 73.84C255.778 73.84 256.992 74.0133 258.165 74.36C259.338 74.68 260.365 75.1333 261.245 75.72L260.045 77.96Z" fill="black"/>
<path d="M273.53 85.12C271.77 85.12 270.437 85.4133 269.53 86C268.623 86.5867 268.17 87.48 268.17 88.68C268.17 89.88 268.597 90.8533 269.45 91.6C270.33 92.32 271.517 92.68 273.01 92.68C274.237 92.68 275.343 92.48 276.33 92.08C277.317 91.68 278.13 91.1067 278.77 90.36C279.437 89.6133 279.89 88.7067 280.13 87.64L280.93 90.16C280.183 91.84 279.077 93.0933 277.61 93.92C276.143 94.72 274.41 95.12 272.41 95.12C270.97 95.12 269.703 94.84 268.61 94.28C267.543 93.72 266.717 92.96 266.13 92C265.543 91.04 265.25 89.96 265.25 88.76C265.25 86.9467 265.943 85.5067 267.33 84.44C268.717 83.3733 270.65 82.8267 273.13 82.8H280.61V85.12H273.53ZM280.05 81.4C280.05 79.8 279.57 78.56 278.61 77.68C277.677 76.8 276.277 76.36 274.41 76.36C273.237 76.36 272.103 76.5733 271.01 77C269.917 77.4267 268.823 78.0267 267.73 78.8L266.41 76.76C267.317 76.1467 268.197 75.6267 269.05 75.2C269.903 74.7733 270.81 74.4533 271.77 74.24C272.73 74 273.81 73.88 275.01 73.88C277.623 73.88 279.623 74.5333 281.01 75.84C282.397 77.12 283.103 78.88 283.13 81.12L283.17 95H280.13L280.05 81.4Z" fill="black"/>
<path d="M290.336 65.32H293.456V95H290.336V65.32Z" fill="black"/>
</svg>
